<svg width="600 " height="596" viewBox="0 0 889 596" fill="none" xmlns="http://www.w3.org/2000/svg">
    <g clip-path="url(#clip0_181_1068)">
        <path
            d="M387.457 438.674C311.494 481.449 354.27 586.913 379.345 591.338C398.658 594.746 462.149 592.792 492.921 591.338L731.134 415.074L591.745 395.899C548.97 395.899 448.228 404.454 387.457 438.674Z"
            fill="white" />
        <path
            d="M492.921 591.338C491.822 591.393 494.111 591.281 492.921 591.338ZM492.921 591.338C462.149 592.792 398.658 594.746 379.345 591.338C354.27 586.913 311.494 481.449 387.457 438.674C448.228 404.454 548.97 395.899 591.745 395.899L731.134 415.074L492.921 591.338Z"
            stroke="black" stroke-width="2.91102" />
       
    </g>
    <defs>
        <clipPath id="clip0_181_1068">
            <rect width="889" height="596" fill="white" />
        </clipPath>
    </defs>
</svg>